<svg width="116" height="27" xmlns="http://www.w3.org/2000/svg"><g fill="none" fill-rule="evenodd"><path d="M-305-27h1919v79.5H-305z"/><path d="M33.303 5.7c5.832 0 10.38 4.38 10.38 10.418a10.355 10.355 0 01-3.03 7.358 10.316 10.316 0 01-7.35 3.024c-5.832 0-10.38-4.381-10.38-10.382 0-6.037 4.548-10.418 10.38-10.418zm-22.923 0c5.832 0 10.38 4.38 10.38 10.418a10.355 10.355 0 01-3.03 7.358 10.316 10.316 0 01-7.35 3.024C4.548 26.5 0 22.119 0 16.118 0 10.081 4.548 5.7 10.38 5.7zM50.29.516v7.397s2.376-2.37 6.592-2.37c5 0 9.075 4.265 9.075 10.496 0 6.306-4.222 10.46-9.26 10.46-4.954 0-6.407-2.48-6.407-2.48v2.035h-4.445V.516h4.445zM72.444.5v26H68.12V.5h4.325zM84.34 5.7c5.877 0 9.513 4.491 9.513 10.087 0 .578-.037 1.156-.11 1.73H79.088c.294 2.871 2.497 4.933 5.583 4.933 2.24 0 3.636-1.104 4.334-2.614h4.452a9.536 9.536 0 01-.694 1.921c-1.393 2.906-4.26 4.743-8.056 4.743-5.986 0-10.1-4.05-10.1-10.382 0-6.221 4.555-10.418 9.733-10.418zm21.41 0c5.876 0 9.512 4.491 9.512 10.087 0 .578-.037 1.156-.11 1.73h-14.655c.294 2.871 2.497 4.933 5.583 4.933 2.24 0 3.636-1.104 4.334-2.614h4.452a9.536 9.536 0 01-.694 1.921c-1.393 2.906-4.26 4.743-8.056 4.743-5.986 0-10.1-4.05-10.1-10.382 0-6.221 4.555-10.418 9.733-10.418zM55.734 9.585c-3.26 0-5.445 2.337-5.445 6.454 0 3.895 2.222 6.454 5.482 6.454 3.37 0 5.555-2.633 5.555-6.454 0-3.635-2.26-6.454-5.592-6.454zm-22.432.238c-3.375 0-5.906 2.687-5.906 6.295 0 3.571 2.531 6.259 5.906 6.259 3.374 0 5.905-2.872 5.905-6.259 0-3.608-2.53-6.295-5.905-6.295zm-22.923 0c-3.375 0-5.905 2.687-5.905 6.295 0 3.571 2.53 6.259 5.905 6.259 3.374 0 5.905-2.872 5.905-6.259 0-3.608-2.53-6.295-5.905-6.295zm73.924-.074c-2.535 0-4.628 1.767-5.142 4.455h10.174c-.478-2.65-2.13-4.455-5.032-4.455zm21.409 0c-2.535 0-4.628 1.767-5.142 4.455h10.174c-.478-2.65-2.13-4.455-5.032-4.455z" fill="#4D4D4D" fill-rule="nonzero"/></g></svg>